# AST/ASF file generated using VICON BodyLanguage
# -----------------------------------------------
:version 1.10
:name VICON
:units
  mass 1.0
  length 0.45
  angle deg
:documentation
   .ast/.asf automatically generated from VICON data using
   VICON BodyBuilder and BodyLanguage model FoxedUp or BRILLIANT.MOD
:root
   order TX TY TZ RX RY RZ
   axis XYZ
   position 0 0 0  
   orientation 0 0 0 
:bonedata
  begin
     id 1 
     name lhipjoint
     direction 0.573633 -0.743009 0.344793 
     length 2.46257 
     axis 0 0 0  XYZ
  end
  begin
     id 2 
     name lfemur
     direction 0.34202 -0.939693 0  
     length 7.3842  
     axis 0 0 20  XYZ
    dof rx ry rz
    limits (-160.0 20.0)
           (-70.0 70.0)
           (-60.0 70.0)
  end
  begin
     id 3 
     name ltibia
     direction 0.34202 -0.939693 0   
     length 7.50407   
     axis 0 0 20   XYZ
    dof rx
    limits (-10.0 170.0)
  end
  begin
     id 4 
     name lfoot
     direction 0.110749 -0.304281 0.946123   
     length 1.95925   
     axis -90 7.62852e-016 20   XYZ
    dof rx rz
    limits (-45.0 90.0)
           (-70.0 20.0)
  end
  begin
     id 5 
     name ltoes
     direction 1.53554e-011 -4.21843e-011 1   
     length 0.978318   
     axis -90 7.62852e-016 20   XYZ
    dof rx
    limits (-90.0 20.0)
  end
  begin
     id 6 
     name rhipjoint
     direction -0.488109 -0.791693 0.367385   
     length 2.31113  
     axis 0 0 0  XYZ 
  end
  begin
     id 7 
     name rfemur
     direction -0.34202 -0.939693 0   
     length 7.40965   
     axis 0 0 -20   XYZ
    dof rx ry rz
    limits (-160.0 20.0)
           (-70.0 70.0)
           (-70.0 60.0)
  end
  begin
     id 8 
     name rtibia
     direction -0.34202 -0.939693 0   
     length 7.55548   
     axis 0 0 -20   XYZ
    dof rx
    limits (-10.0 170.0)
 end
 begin
     id 9 
     name rfoot
     direction -0.127594 -0.350561 0.927808   
     length 2.07199  
     axis -90 -7.62852e-016 -20   XYZ
    dof rx rz
    limits (-45.0 90.0)
           (-20.0 70.0)
  end
  begin
     id 10 
     name rtoes
     direction -1.53542e-011 -4.21909e-011 1   
     length 1.02667   
     axis -90 -7.62852e-016 -20   XYZ
    dof rx
    limits (-90.0 20.0)
  end
  begin
     id 11 
     name lowerback
     direction -0.0103342 0.997298 -0.0727278   
     length 2.02836   
     axis 0 0 0   XYZ
    dof rx ry rz
    limits (-20.0 45.0)
           (-30.0 30.0)
           (-30.0 30.0)
  end
  begin
     id 12 
     name upperback
     direction 0.0171146 0.999786 -0.011606   
     length 2.03179   
     axis 0 0 0   XYZ
    dof rx ry rz
    limits (-20.0 45.0)
           (-30.0 30.0)
           (-30.0 30.0)
  end
  begin
     id 13 
     name thorax
     direction 0.0216927 0.999513 0.0224343   
     length 2.03882   
     axis 0 0 0   XYZ
    dof rx ry rz
    limits (-20.0 45.0)
           (-30.0 30.0)
           (-30.0 30.0)
  end
  begin
     id 14 
     name lowerneck
     direction 0.000989287 0.993907 0.110221   
     length 1.75428   
     axis 0 0 0   XYZ
    dof rx ry rz
    limits (-20.0 45.0)
           (-30.0 30.0)
           (-30.0 30.0)
  end
  begin
     id 15 
     name upperneck
     direction -0.0172474 0.994813 -0.100253   
     length 1.77058   
     axis 0 0 0   XYZ
    dof rx ry rz
    limits (-20.0 45.0)
           (-30.0 30.0)
           (-30.0 30.0)
  end
  begin
     id 16
     name head
     direction -0.00486455 0.99894 -0.0457663  
     length 1.77427  
     axis 0 0 0   XYZ
    dof rx ry rz
    limits (-20.0 45.0)
           (-30.0 30.0)
           (-30.0 30.0)
  end
  begin
     id 17 
     name lclavicle
     direction 0.927314 0.333734 -0.169441  
     length 3.97584  
     axis 0 0 0   XYZ
    dof ry rz
    limits (-20.0 10.0)
           (0.0 20.0)
  end
  begin
     id 18 
     name lhumerus
     direction 1 -4.48965e-011 -3.25313e-028   
     length 4.76468   
     axis 180 -30 -90   XYZ
    dof rx ry rz
    limits (-60.0 90.0)
           (-90.0 90.0)
           (-90.0 90.0)
  end
  begin
     id 19
     name lradius
     direction 1 -4.48969e-011 -2.8465e-028   
     length 3.52712   
     axis -180 -30 -90   XYZ
    dof rx
    limits (-10.0 170.0)
  end
  begin
     id 20
     name lwrist
     direction 1 -4.4896e-011 -7.78665e-028   
     length 1.76356   
     axis 1.91374e-015 90 90   XYZ
    dof ry
    limits (-180.0 0.0)
 end
  begin
     id 21 
     name lhand
     direction 1 -4.48959e-011 -1.55733e-027   
     length 0.859564   
     axis 9.9371e-016 90 90   XYZ
    dof rx rz
    limits (-90.0 90.0)
           (-45.0 45.0)
  end
  begin
     id 22 
     name lfingers
     direction 1 -4.48965e-011 -3.11466e-027   
     length 0.693002   
     axis 1.98742e-015 90 90   XYZ
    dof rx
    limits (0.0 90.0)
  end
  begin
     id 23
     name lthumb
     direction 0.707107 -6.34948e-011 0.707107   
     length 0.995017   
     axis -90 45 2.85299e-015   XYZ
    dof rx rz
    limits (-45.0 45.0)
           (-45.0 45.0)
  end
  begin
     id 24 
     name rclavicle
     direction -0.899388 0.348209 -0.264294   
     length 3.68366  
     axis 0 0 0   XYZ 
    dof ry rz
    limits (-10.0 20.0)
           (-20.0 0.0)
  end
  begin
     id 25 
     name rhumerus
     direction -1 -4.48965e-011 -3.01536e-027  
     length 4.90577   
     axis 180 30 90   XYZ
    dof rx ry rz
    limits (-90.0 60.0)
           (-90.0 90.0)
           (-90.0 90.0)
  end
  begin
     id 26 
     name rradius
     direction -1 -4.48966e-011 3.93291e-027   
     length 3.42692   
     axis -180 30 90   XYZ
    dof rx
    limits (-10.0 170.0)
  end
  begin
     id 27 
     name rwrist
     direction -1 -4.48969e-011 -7.78665e-028   
     length 1.71346   
     axis 1.91374e-015 -90 -90   XYZ
    dof ry
    limits (-180.0 0.0)
  end
  begin
     id 28
     name rhand
     direction -1 -4.48967e-011 -1.55733e-027   
     length 0.740957   
     axis 9.9371e-016 -90 -90   XYZ
    dof rx rz
    limits (-90.0 90.0)
           (-45.0 45.0)
  end
  begin
     id 29
     name rfingers
     direction -1 -4.48949e-011 -3.11466e-027   
     length 0.597378   
     axis 1.98742e-015 -90 -90   XYZ
    dof rx
    limits (0.0 90.0)
  end
  begin
     id 30
     name rthumb
     direction -0.707107 -6.34931e-011 0.707107   
     length 0.857719   
     axis -90 -45 -2.85299e-015   XYZ
    dof rx rz
    limits (-45.0 45.0)
           (-45.0 45.0)
  end
:hierarchy
  begin
    root lhipjoint rhipjoint lowerback
    lhipjoint lfemur
    lfemur ltibia
    ltibia lfoot
    lfoot ltoes
    rhipjoint rfemur
    rfemur rtibia
    rtibia rfoot
    rfoot rtoes
    lowerback upperback
    upperback thorax
    thorax lowerneck lclavicle rclavicle
    lowerneck upperneck
    upperneck head
    lclavicle lhumerus
    lhumerus lradius
    lradius lwrist
    lwrist lhand lthumb
    lhand lfingers
    rclavicle rhumerus
    rhumerus rradius
    rradius rwrist
    rwrist rhand rthumb
    rhand rfingers
  end

#!OML:ASF E:\I on waltz\AllaLogoMonkeySwing\Project 1\Capture day 1\Session 1\Subject1.ASF
:FULLY-SPECIFIED
:DEGREES
193
root 1.53649 6.67823 -1.6905 -33.4657 -2.68966 -1.66104
lowerback 35.9105 1.21809 1.59547
upperback 10.9895 2.22649 1.684
thorax -5.76167 1.0543 0.145315
lowerneck -17.6084 3.0281 1.61981
upperneck 6.47698 4.07258 -3.58913
head 4.88707 1.78764 -1.01252
rclavicle 5.34234e-015 -2.78299e-015
rhumerus -31.4025 18.6504 -93.7669
rradius 101.621
rwrist 21.8423
rhand -25.9525 -30.5725
rfingers 7.12502
rthumb 0.591593 -60.5515
lclavicle 5.34234e-015 -2.78299e-015
lhumerus -31.7425 -15.1544 99.2732
lradius 103.291
lwrist -15.0555
lhand -22.3568 -35.9394
lfingers 7.12502
lthumb 4.06419 -5.99846
rfemur -79.8084 -21.5091 27.5087
rtibia 133.985
rfoot -21.7075 -0.191033
rtoes 27.7178
lfemur -79.9371 35.0173 -18.8864
ltibia 134.016
lfoot -29.4543 -19.3392
ltoes -4.56193
194
root 1.54007 6.67995 -1.68273 -33.3772 -2.35589 -1.62199
lowerback 35.7908 1.17457 1.48752
upperback 11.1288 2.12846 1.64974
thorax -5.57006 1.00992 0.204594
lowerneck -17.6205 3.10637 1.64641
upperneck 6.40398 4.16508 -3.55743
head 4.86809 1.83665 -0.998464
rclavicle -1.86361e-014 1.59028e-015
rhumerus -31.3037 18.6679 -93.6822
rradius 101.921
rwrist 21.9517
rhand -26.04 -30.6881
rfingers 7.12502
rthumb 0.507111 -60.6673
lclavicle -1.86361e-014 1.59028e-015
lhumerus -31.6336 -15.3251 99.2761
lradius 103.564
lwrist -14.9674
lhand -22.2224 -35.8288
lfingers 7.12502
lthumb 4.19404 -5.89037
rfemur -79.9136 -22.0787 27.2631
rtibia 134.076
rfoot -21.8939 0.0539733
rtoes 27.8769
lfemur -80.0036 34.5017 -19.2161
ltibia 134.021
lfoot -29.3501 -19.1933
ltoes -4.36257
195
root 1.54183 6.67659 -1.67915 -33.2424 -2.30803 -1.66175
lowerback 35.7392 1.19733 1.46446
upperback 11.2441 2.14975 1.6972
thorax -5.42863 1.02047 0.261801
lowerneck -17.7634 3.12663 1.5324
upperneck 6.42715 4.20381 -3.43659
head 4.89339 1.85922 -0.937009
rclavicle -1.32937e-014 -2.08724e-014
rhumerus -31.1088 18.7079 -93.5182
rradius 102.249
rwrist 22.0024
rhand -25.9754 -30.8016
rfingers 7.12502
rthumb 0.569526 -60.7806
lclavicle -1.32937e-014 -2.08724e-014
lhumerus -31.4839 -15.3838 99.306
lradius 103.838
lwrist -14.9909
lhand -22.107 -35.7423
lfingers 7.12502
lthumb 4.30543 -5.80607
rfemur -80.1085 -22.0916 27.3186
rtibia 134.13
rfoot -21.8428 0.0355714
rtoes 27.8573
lfemur -80.252 34.4001 -19.326
ltibia 134.066
lfoot -29.1172 -19.2624
ltoes -3.86616
196
root 1.54259 6.67314 -1.67727 -33.1787 -2.35226 -1.64709
lowerback 35.8046 1.26928 1.37842
upperback 11.3402 2.21345 1.75371
thorax -5.35201 1.04865 0.344464
lowerneck -17.8776 3.10837 1.45411
upperneck 6.46689 4.19459 -3.40942
head 4.92134 1.85283 -0.915295
rclavicle 3.23771e-014 -2.38542e-015
rhumerus -30.9643 18.7001 -93.3889
rradius 102.584
rwrist 22.1169
rhand -25.7768 -30.9584
rfingers 7.12502
rthumb 0.76134 -60.9368
lclavicle 3.23771e-014 -2.38542e-015
lhumerus -31.3413 -15.3737 99.3647
lradius 104.092
lwrist -14.9635
lhand -22.1444 -35.7364
lfingers 7.12502
lthumb 4.26933 -5.79941
rfemur -80.2282 -21.9621 27.3642
rtibia 134.158
rfoot -21.7809 -0.0190984
rtoes 27.6746
lfemur -80.3957 34.4878 -19.3838
ltibia 134.104
lfoot -29.0311 -19.3345
ltoes -3.59881
197
root 1.54308 6.67211 -1.67565 -33.1065 -2.36047 -1.59781
lowerback 35.8704 1.35107 1.26673
upperback 11.404 2.28005 1.78895
thorax -5.31126 1.07808 0.416516
lowerneck -17.8448 3.08211 1.36959
upperneck 6.38453 4.17206 -3.36841
head 4.88705 1.84384 -0.892097
rclavicle 3.65018e-014 1.03368e-014
rhumerus -30.9516 18.5935 -93.3012
rradius 102.877
rwrist 22.289
rhand -25.657 -31.1938
rfingers 7.12502
rthumb 0.877052 -61.1717
lclavicle 3.65018e-014 1.03368e-014
lhumerus -31.276 -15.3858 99.467
lradius 104.347
lwrist -14.8295
lhand -22.1743 -35.7166
lfingers 7.12502
lthumb 4.24048 -5.77904
rfemur -80.3518 -21.9437 27.3521
rtibia 134.176
rfoot -21.7576 0.0211878
rtoes 27.672
lfemur -80.5226 34.5292 -19.5419
ltibia 134.117
lfoot -29.0769 -19.3081
ltoes -3.72527
198
root 1.54317 6.66933 -1.67696 -33.0701 -2.51615 -1.51417
lowerback 36.0017 1.49916 1.18092
upperback 11.482 2.43802 1.82232
thorax -5.27699 1.15179 0.440114
lowerneck -17.8328 3.03228 1.31012
upperneck 6.28653 4.11114 -3.32236
head 4.85065 1.81705 -0.874768
rclavicle -2.7482e-014 -3.18055e-015
rhumerus -30.9293 18.3716 -93.2216
rradius 103.17
rwrist 22.5441
rhand -25.6006 -31.4052
rfingers 7.12502
rthumb 0.931543 -61.3829
lclavicle -2.7482e-014 -3.18055e-015
lhumerus -31.2258 -15.4144 99.5889
lradius 104.62
lwrist -14.6364
lhand -22.0871 -35.7392
lfingers 7.12502
lthumb 4.32462 -5.80335
rfemur -80.4444 -21.7234 27.3795
rtibia 134.173
rfoot -21.6552 0.0510441
rtoes 27.8773
lfemur -80.6533 34.8575 -19.6495
ltibia 134.143
lfoot -29.1524 -19.3846
ltoes -3.93472
199
root 1.54256 6.66814 -1.67878 -33.0552 -2.52546 -1.52957
lowerback 36.107 1.52735 1.16758
upperback 11.5713 2.46982 1.84493
thorax -5.21747 1.16654 0.459566
lowerneck -17.892 2.99586 1.307
upperneck 6.32729 4.06082 -3.29228
head 4.87078 1.79337 -0.868618
rclavicle -1.50082e-014 -1.11319e-014
rhumerus -30.9124 18.1978 -93.1925
rradius 103.464
rwrist 22.7442
rhand -25.5775 -31.4373
rfingers 7.12502
rthumb 0.953793 -61.415
lclavicle -1.50082e-014 -1.11319e-014
lhumerus -31.1855 -15.3091 99.6572
lradius 104.915
lwrist -14.5259
lhand -22.0523 -35.753
lfingers 7.12502
lthumb 4.35828 -5.81787
rfemur -80.4807 -21.7834 27.4163
rtibia 134.163
rfoot -21.6343 0.103339
rtoes 28.0498
lfemur -80.7711 34.9476 -19.7091
ltibia 134.151
lfoot -29.033 -19.5465
ltoes -3.62481
